<svg width="260" height="40" viewBox="0 0 260 40" fill="none" xmlns="http://www.w3.org/2000/svg">
<rect width="260" height="40" rx="12" fill="#E6E6F0"/>
<rect x="2" y="2" width="127" height="36" rx="10" fill="white"/>
<path d="M37.8232 22.3965H42.0508V26H43.8525V17.3604H42.0508V20.7793H37.8232V17.3604H36.0215V26H37.8232V22.3965ZM53.0371 21.6846C53.0371 22.4932 52.7646 23.1699 52.2373 23.7236C51.7012 24.2861 51.0684 24.5586 50.3389 24.5586C49.6006 24.5586 48.9678 24.2861 48.4316 23.7236C47.8955 23.1699 47.6318 22.4932 47.6318 21.6846C47.6318 20.876 47.8955 20.1992 48.4316 19.6367C48.9678 19.083 49.6006 18.8018 50.3389 18.8018C51.0684 18.8018 51.7012 19.083 52.2373 19.6367C52.7646 20.1992 53.0371 20.876 53.0371 21.6846ZM45.8389 21.6846C45.8389 22.8975 46.2783 23.9434 47.1748 24.8398C48.0713 25.7363 49.126 26.1846 50.3389 26.1846C51.5518 26.1846 52.5977 25.7363 53.4941 24.8398C54.3906 23.9434 54.8389 22.8975 54.8389 21.6846C54.8389 20.4717 54.3906 19.417 53.4941 18.5205C52.5977 17.624 51.5518 17.1758 50.3389 17.1758C49.126 17.1758 48.0713 17.624 47.1748 18.5205C46.2783 19.417 45.8389 20.4717 45.8389 21.6846ZM56.8164 17.3604V26H61.1406C62.0547 26 62.7842 25.7715 63.3115 25.2969C63.8389 24.8311 64.1113 24.2246 64.1113 23.4775C64.1113 23.1963 64.0586 22.9238 63.9531 22.6777C63.8477 22.4316 63.7334 22.2383 63.6104 22.0977C63.4873 21.957 63.3379 21.8252 63.1709 21.7021C62.9951 21.5791 62.8809 21.5088 62.8193 21.4736C62.749 21.4473 62.7051 21.4297 62.6699 21.4209L62.916 21.2539C63.083 21.1309 63.25 20.9199 63.4082 20.6211C63.5664 20.3223 63.6543 19.9883 63.6543 19.6191C63.6543 18.9688 63.4082 18.4238 62.9248 18.002C62.4326 17.5801 61.7822 17.3691 60.9561 17.3691L56.8164 17.3604ZM61.1406 22.1416C61.4834 22.1416 61.7646 22.2559 61.9844 22.4844C62.1953 22.7129 62.3096 22.9854 62.3096 23.3105C62.3096 23.6621 62.2041 23.9521 61.9932 24.1631C61.7822 24.374 61.4922 24.4795 61.1406 24.4795H58.6182V22.1416H61.1406ZM61.8613 19.7949C61.8613 20.0762 61.7734 20.2959 61.6152 20.4541C61.4482 20.6123 61.2285 20.7002 60.9561 20.7002H58.6182V18.8984H60.9561C61.2285 18.8984 61.4482 18.9775 61.6152 19.1357C61.7734 19.2939 61.8613 19.5137 61.8613 19.7949ZM72.3818 17.3604L67.8818 23.0293V17.3604H66.0801V26H67.6973L72.1973 20.3311V26H73.999V17.3604H72.3818ZM78.3232 22.3965H82.5508V26H84.3525V17.3604H82.5508V20.7793H78.3232V17.3604H76.5215V26H78.3232V22.3965ZM93.1768 17.3604L88.6768 23.0293V17.3604H86.875V26H88.4922L92.9922 20.3311V26H94.7939V17.3604H93.1768Z" fill="#323264"/>
<path d="M165.566 17.3604H163.404L159.713 21.2275V17.3604H157.911V26H159.713V23.5742L161.066 22.1328L163.853 26H165.83L162.235 20.9639L165.566 17.3604ZM173.925 21.6846C173.925 22.4932 173.652 23.1699 173.125 23.7236C172.589 24.2861 171.956 24.5586 171.227 24.5586C170.488 24.5586 169.855 24.2861 169.319 23.7236C168.783 23.1699 168.52 22.4932 168.52 21.6846C168.52 20.876 168.783 20.1992 169.319 19.6367C169.855 19.083 170.488 18.8018 171.227 18.8018C171.956 18.8018 172.589 19.083 173.125 19.6367C173.652 20.1992 173.925 20.876 173.925 21.6846ZM166.727 21.6846C166.727 22.8975 167.166 23.9434 168.062 24.8398C168.959 25.7363 170.014 26.1846 171.227 26.1846C172.439 26.1846 173.485 25.7363 174.382 24.8398C175.278 23.9434 175.727 22.8975 175.727 21.6846C175.727 20.4717 175.278 19.417 174.382 18.5205C173.485 17.624 172.439 17.1758 171.227 17.1758C170.014 17.1758 168.959 17.624 168.062 18.5205C167.166 19.417 166.727 20.4717 166.727 21.6846ZM182.292 21.1396L179.146 17.3604H177.704V26H179.506V20.3311L182.292 23.6621L185.087 20.3311V26H186.889V17.3604H185.447L182.292 21.1396ZM191.213 18.9775H195.44V26H197.242V17.3604H189.411V26H191.213V18.9775ZM206.699 26V20.4189C206.699 19.5049 206.356 18.7402 205.688 18.1162C205.012 17.4922 204.15 17.1758 203.096 17.1758C202.674 17.1758 202.261 17.2373 201.865 17.3516C201.47 17.4658 201.153 17.5977 200.916 17.7383C200.67 17.8877 200.441 18.0547 200.23 18.2393C200.02 18.4238 199.879 18.5557 199.817 18.626C199.756 18.6963 199.712 18.7578 199.677 18.8018L200.846 19.9707L201.083 19.6631C201.224 19.4697 201.479 19.2852 201.848 19.0918C202.217 18.8984 202.639 18.8018 203.096 18.8018C203.623 18.8018 204.054 18.96 204.388 19.2676C204.722 19.584 204.897 19.9619 204.897 20.4189L201.742 20.9639C200.96 21.0957 200.345 21.4033 199.896 21.8779C199.448 22.3613 199.229 22.959 199.229 23.6709C199.229 24.3213 199.519 24.9102 200.099 25.4199C200.679 25.9297 201.408 26.1846 202.287 26.1846C202.586 26.1846 202.876 26.1406 203.175 26.0703C203.465 25.9912 203.711 25.9033 203.904 25.8066C204.098 25.71 204.273 25.6045 204.44 25.4814C204.607 25.3584 204.722 25.2793 204.774 25.2266C204.827 25.1738 204.871 25.1299 204.897 25.1123V26.0088L206.699 26ZM202.56 24.5674C202.085 24.5674 201.716 24.4531 201.435 24.2422C201.153 24.0225 201.021 23.7676 201.021 23.4775C201.021 23.1699 201.118 22.915 201.32 22.7129C201.514 22.502 201.777 22.3701 202.103 22.3174L204.897 21.8691V22.0449C204.897 22.8535 204.687 23.4688 204.273 23.9082C203.86 24.3477 203.289 24.5674 202.56 24.5674ZM211.023 22.3965H215.251V26H217.053V17.3604H215.251V20.7793H211.023V17.3604H209.222V26H211.023V22.3965ZM221.465 17.3604H219.663V26H221.465V17.3604ZM221.649 14.6621C221.649 14.3545 221.544 14.0996 221.342 13.8975C221.131 13.6865 220.876 13.5898 220.568 13.5898C220.252 13.5898 219.997 13.6865 219.795 13.8975C219.584 14.0996 219.487 14.3545 219.487 14.6621C219.487 14.9785 219.584 15.2334 219.795 15.4355C219.997 15.6465 220.252 15.7432 220.568 15.7432C220.876 15.7432 221.131 15.6465 221.342 15.4355C221.544 15.2334 221.649 14.9785 221.649 14.6621ZM226.958 17.3604C225.982 17.3604 225.2 17.6416 224.603 18.2041C224.005 18.7666 223.706 19.4697 223.706 20.3311C223.706 20.7178 223.776 21.0693 223.899 21.4033C224.022 21.7373 224.163 21.9922 224.312 22.1768C224.462 22.3701 224.629 22.5371 224.822 22.6777C225.016 22.8184 225.156 22.915 225.235 22.9502C225.314 22.9941 225.376 23.0205 225.42 23.0293L223.53 26H225.508L227.222 23.3018H229.111V26H230.904V17.3604H226.958ZM229.111 18.8896V21.7725H226.949C226.545 21.7725 226.202 21.6406 225.921 21.3594C225.648 21.0869 225.508 20.7441 225.508 20.3311C225.508 19.9268 225.648 19.584 225.921 19.3027C226.202 19.0303 226.545 18.8896 226.949 18.8896H229.111Z" fill="#323264"/>
</svg>
